<svg width="207" height="63" viewBox="0 0 207 63" fill="none" xmlns="http://www.w3.org/2000/svg">
<path d="M9.27 1.28H12.662L21.494 24H17.718L15.318 17.824H6.55L4.182 24H0.374002L9.27 1.28ZM14.614 15.168L10.966 5.216L7.19 15.168H14.614ZM35.7398 24.32C34.4384 24.32 33.2544 24.096 32.1878 23.648C31.1424 23.1787 30.2358 22.5387 29.4678 21.728C28.6998 20.9173 28.1024 19.9893 27.6758 18.944C27.2704 17.8987 27.0678 16.7893 27.0678 15.616C27.0678 14.0373 27.4198 12.5973 28.1238 11.296C28.8491 9.99467 29.8518 8.94933 31.1318 8.16C32.4331 7.37067 33.9691 6.976 35.7398 6.976C37.4464 6.976 38.9291 7.36 40.1878 8.128C41.4678 8.87467 42.4064 9.87733 43.0038 11.136L39.5798 12.224C39.1958 11.52 38.6518 10.976 37.9478 10.592C37.2651 10.1867 36.5078 9.984 35.6758 9.984C34.7371 9.984 33.8838 10.2293 33.1158 10.72C32.3691 11.1893 31.7718 11.8507 31.3238 12.704C30.8971 13.536 30.6838 14.5067 30.6838 15.616C30.6838 16.6827 30.9078 17.6533 31.3558 18.528C31.8038 19.3813 32.4011 20.064 33.1478 20.576C33.9158 21.0667 34.7691 21.312 35.7078 21.312C36.2838 21.312 36.8384 21.216 37.3718 21.024C37.9264 20.8107 38.4064 20.5333 38.8118 20.192C39.2171 19.8293 39.5051 19.4347 39.6758 19.008L43.1318 20.032C42.7691 20.864 42.2251 21.6 41.4998 22.24C40.7958 22.88 39.9531 23.392 38.9718 23.776C38.0118 24.1387 36.9344 24.32 35.7398 24.32ZM58.2585 24.32C56.9572 24.32 55.7732 24.096 54.7065 23.648C53.6612 23.1787 52.7545 22.5387 51.9865 21.728C51.2185 20.9173 50.6212 19.9893 50.1945 18.944C49.7892 17.8987 49.5865 16.7893 49.5865 15.616C49.5865 14.0373 49.9385 12.5973 50.6425 11.296C51.3678 9.99467 52.3705 8.94933 53.6505 8.16C54.9518 7.37067 56.4878 6.976 58.2585 6.976C59.9652 6.976 61.4478 7.36 62.7065 8.128C63.9865 8.87467 64.9252 9.87733 65.5225 11.136L62.0985 12.224C61.7145 11.52 61.1705 10.976 60.4665 10.592C59.7838 10.1867 59.0265 9.984 58.1945 9.984C57.2558 9.984 56.4025 10.2293 55.6345 10.72C54.8878 11.1893 54.2905 11.8507 53.8425 12.704C53.4158 13.536 53.2025 14.5067 53.2025 15.616C53.2025 16.6827 53.4265 17.6533 53.8745 18.528C54.3225 19.3813 54.9198 20.064 55.6665 20.576C56.4345 21.0667 57.2878 21.312 58.2265 21.312C58.8025 21.312 59.3572 21.216 59.8905 21.024C60.4452 20.8107 60.9252 20.5333 61.3305 20.192C61.7358 19.8293 62.0238 19.4347 62.1945 19.008L65.6505 20.032C65.2878 20.864 64.7438 21.6 64.0185 22.24C63.3145 22.88 62.4718 23.392 61.4905 23.776C60.5305 24.1387 59.4532 24.32 58.2585 24.32ZM80.7773 24.32C79.4759 24.32 78.2919 24.096 77.2253 23.648C76.1799 23.1787 75.2733 22.5493 74.5053 21.76C73.7373 20.9493 73.1399 20.032 72.7133 19.008C72.3079 17.9627 72.1053 16.8533 72.1053 15.68C72.1053 14.1013 72.4679 12.6613 73.1933 11.36C73.9186 10.0373 74.9319 8.98133 76.2333 8.192C77.5346 7.38133 79.0599 6.976 80.8093 6.976C82.5586 6.976 84.0626 7.38133 85.3213 8.192C86.6013 8.98133 87.5933 10.0267 88.2973 11.328C89.0013 12.6293 89.3533 14.0267 89.3533 15.52C89.3533 15.776 89.3426 16.0213 89.3213 16.256C89.2999 16.4693 89.2786 16.6507 89.2573 16.8H75.8493C75.9133 17.7813 76.1799 18.6453 76.6493 19.392C77.1399 20.1173 77.7586 20.6933 78.5053 21.12C79.2519 21.5253 80.0519 21.728 80.9053 21.728C81.8439 21.728 82.7293 21.4933 83.5613 21.024C84.4146 20.5547 84.9906 19.936 85.2893 19.168L88.2973 20.032C87.9346 20.8427 87.3799 21.5787 86.6333 22.24C85.9079 22.88 85.0439 23.392 84.0413 23.776C83.0386 24.1387 81.9506 24.32 80.7773 24.32ZM75.7533 14.464H85.8653C85.8013 13.504 85.5239 12.6613 85.0333 11.936C84.5639 11.1893 83.9559 10.6133 83.2093 10.208C82.4839 9.78133 81.6733 9.568 80.7773 9.568C79.9026 9.568 79.0919 9.78133 78.3453 10.208C77.6199 10.6133 77.0226 11.1893 76.5533 11.936C76.0839 12.6613 75.8173 13.504 75.7533 14.464ZM102.976 24.32C101.568 24.32 100.235 24.096 98.9765 23.648C97.7178 23.1787 96.6405 22.4853 95.7445 21.568L97.0565 19.2C98.0165 20.0533 98.9765 20.672 99.9365 21.056C100.918 21.44 101.888 21.632 102.848 21.632C103.83 21.632 104.63 21.4507 105.248 21.088C105.867 20.704 106.176 20.1493 106.176 19.424C106.176 18.8907 106.016 18.496 105.696 18.24C105.376 17.984 104.907 17.76 104.288 17.568C103.691 17.376 102.966 17.1627 102.112 16.928C100.918 16.5653 99.9152 16.192 99.1045 15.808C98.2938 15.4027 97.6858 14.912 97.2805 14.336C96.8752 13.76 96.6725 13.024 96.6725 12.128C96.6725 11.04 96.9498 10.112 97.5045 9.344C98.0592 8.576 98.8272 7.98933 99.8085 7.584C100.811 7.17867 101.963 6.976 103.264 6.976C104.48 6.976 105.6 7.168 106.624 7.552C107.67 7.91467 108.587 8.49067 109.376 9.28L107.872 11.616C107.126 10.9333 106.358 10.432 105.568 10.112C104.8 9.792 103.968 9.632 103.072 9.632C102.56 9.632 102.07 9.696 101.6 9.824C101.131 9.93067 100.736 10.144 100.416 10.464C100.118 10.7627 99.9685 11.1893 99.9685 11.744C99.9685 12.192 100.096 12.5547 100.352 12.832C100.608 13.1093 100.992 13.344 101.504 13.536C102.016 13.728 102.646 13.9413 103.392 14.176C104.694 14.56 105.803 14.944 106.72 15.328C107.638 15.6907 108.342 16.1707 108.832 16.768C109.344 17.344 109.6 18.144 109.6 19.168C109.6 20.7893 108.992 22.0587 107.776 22.976C106.582 23.872 104.982 24.32 102.976 24.32ZM123.495 24.32C122.087 24.32 120.754 24.096 119.495 23.648C118.237 23.1787 117.159 22.4853 116.263 21.568L117.575 19.2C118.535 20.0533 119.495 20.672 120.455 21.056C121.437 21.44 122.407 21.632 123.367 21.632C124.349 21.632 125.149 21.4507 125.767 21.088C126.386 20.704 126.695 20.1493 126.695 19.424C126.695 18.8907 126.535 18.496 126.215 18.24C125.895 17.984 125.426 17.76 124.807 17.568C124.21 17.376 123.485 17.1627 122.631 16.928C121.437 16.5653 120.434 16.192 119.623 15.808C118.813 15.4027 118.205 14.912 117.799 14.336C117.394 13.76 117.191 13.024 117.191 12.128C117.191 11.04 117.469 10.112 118.023 9.344C118.578 8.576 119.346 7.98933 120.327 7.584C121.33 7.17867 122.482 6.976 123.783 6.976C124.999 6.976 126.119 7.168 127.143 7.552C128.189 7.91467 129.106 8.49067 129.895 9.28L128.391 11.616C127.645 10.9333 126.877 10.432 126.087 10.112C125.319 9.792 124.487 9.632 123.591 9.632C123.079 9.632 122.589 9.696 122.119 9.824C121.65 9.93067 121.255 10.144 120.935 10.464C120.637 10.7627 120.487 11.1893 120.487 11.744C120.487 12.192 120.615 12.5547 120.871 12.832C121.127 13.1093 121.511 13.344 122.023 13.536C122.535 13.728 123.165 13.9413 123.911 14.176C125.213 14.56 126.322 14.944 127.239 15.328C128.157 15.6907 128.861 16.1707 129.351 16.768C129.863 17.344 130.119 18.144 130.119 19.168C130.119 20.7893 129.511 22.0587 128.295 22.976C127.101 23.872 125.501 24.32 123.495 24.32ZM138.062 24V7.264H141.582V24H138.062ZM138.062 4.512V0.639999H141.582V4.512H138.062ZM159.636 24.32C158.356 24.32 157.193 24.0213 156.148 23.424C155.124 22.8053 154.313 21.984 153.716 20.96V24H150.612V0.639999H154.132V10.432C154.793 9.36533 155.615 8.52267 156.596 7.904C157.599 7.28533 158.772 6.976 160.116 6.976C161.225 6.976 162.239 7.21067 163.156 7.68C164.073 8.14933 164.852 8.78933 165.492 9.6C166.153 10.4107 166.655 11.3387 166.996 12.384C167.359 13.4293 167.54 14.5387 167.54 15.712C167.54 16.8853 167.337 17.9947 166.932 19.04C166.548 20.0853 165.993 21.0027 165.268 21.792C164.543 22.5813 163.7 23.2 162.74 23.648C161.801 24.096 160.767 24.32 159.636 24.32ZM158.708 21.312C159.476 21.312 160.18 21.1627 160.82 20.864C161.46 20.544 162.015 20.128 162.484 19.616C162.953 19.104 163.305 18.5067 163.54 17.824C163.796 17.1413 163.924 16.4373 163.924 15.712C163.924 14.7093 163.711 13.7707 163.284 12.896C162.879 12.0213 162.303 11.3173 161.556 10.784C160.809 10.2507 159.945 9.984 158.964 9.984C158.26 9.984 157.599 10.1547 156.98 10.496C156.361 10.816 155.807 11.2533 155.316 11.808C154.847 12.3413 154.452 12.9387 154.132 13.6V18.016C154.26 18.5067 154.484 18.9547 154.804 19.36C155.124 19.744 155.497 20.0853 155.924 20.384C156.351 20.6613 156.809 20.8853 157.3 21.056C157.791 21.2267 158.26 21.312 158.708 21.312ZM175.538 0.639999H179.058V19.168C179.058 20.0213 179.186 20.5653 179.442 20.8C179.698 21.0347 180.018 21.152 180.402 21.152C180.828 21.152 181.223 21.1093 181.586 21.024C181.97 20.9387 182.3 20.832 182.578 20.704L183.09 23.488C182.578 23.7013 181.97 23.8827 181.266 24.032C180.562 24.1813 179.932 24.256 179.378 24.256C178.183 24.256 177.244 23.9253 176.562 23.264C175.879 22.5813 175.538 21.6427 175.538 20.448V0.639999ZM197.515 24.32C196.213 24.32 195.029 24.096 193.963 23.648C192.917 23.1787 192.011 22.5493 191.243 21.76C190.475 20.9493 189.877 20.032 189.451 19.008C189.045 17.9627 188.843 16.8533 188.843 15.68C188.843 14.1013 189.205 12.6613 189.931 11.36C190.656 10.0373 191.669 8.98133 192.971 8.192C194.272 7.38133 195.797 6.976 197.547 6.976C199.296 6.976 200.8 7.38133 202.059 8.192C203.339 8.98133 204.331 10.0267 205.035 11.328C205.739 12.6293 206.091 14.0267 206.091 15.52C206.091 15.776 206.08 16.0213 206.059 16.256C206.037 16.4693 206.016 16.6507 205.995 16.8H192.587C192.651 17.7813 192.917 18.6453 193.387 19.392C193.877 20.1173 194.496 20.6933 195.243 21.12C195.989 21.5253 196.789 21.728 197.643 21.728C198.581 21.728 199.467 21.4933 200.299 21.024C201.152 20.5547 201.728 19.936 202.027 19.168L205.035 20.032C204.672 20.8427 204.117 21.5787 203.371 22.24C202.645 22.88 201.781 23.392 200.779 23.776C199.776 24.1387 198.688 24.32 197.515 24.32ZM192.491 14.464H202.603C202.539 13.504 202.261 12.6613 201.771 11.936C201.301 11.1893 200.693 10.6133 199.947 10.208C199.221 9.78133 198.411 9.568 197.515 9.568C196.64 9.568 195.829 9.78133 195.083 10.208C194.357 10.6133 193.76 11.1893 193.291 11.936C192.821 12.6613 192.555 13.504 192.491 14.464Z" fill="#3154C5"/>
<path d="M87.701 62V43.504L79.477 57.872H78.069L69.813 43.504V62H67.573V39.28H69.877L78.741 54.832L87.669 39.28H89.941V62H87.701ZM103.737 62.32C102.543 62.32 101.433 62.096 100.409 61.648C99.3855 61.1787 98.5002 60.5493 97.7535 59.76C97.0068 58.9493 96.4202 58.0213 95.9935 56.976C95.5882 55.9307 95.3855 54.8107 95.3855 53.616C95.3855 52.0587 95.7375 50.6293 96.4415 49.328C97.1668 48.0267 98.1588 46.992 99.4175 46.224C100.676 45.4347 102.105 45.04 103.705 45.04C105.348 45.04 106.777 45.4347 107.993 46.224C109.231 47.0133 110.201 48.0587 110.905 49.36C111.609 50.64 111.961 52.048 111.961 53.584C111.961 53.7547 111.961 53.9253 111.961 54.096C111.961 54.2453 111.951 54.3627 111.929 54.448H97.6575C97.7642 55.6427 98.0948 56.7093 98.6495 57.648C99.2255 58.5653 99.9615 59.3013 100.857 59.856C101.775 60.3893 102.767 60.656 103.833 60.656C104.921 60.656 105.945 60.3787 106.905 59.824C107.887 59.2693 108.569 58.544 108.953 57.648L110.841 58.16C110.5 58.9493 109.977 59.664 109.273 60.304C108.569 60.944 107.737 61.4453 106.777 61.808C105.839 62.1493 104.825 62.32 103.737 62.32ZM97.5935 52.88H109.913C109.828 51.664 109.497 50.5973 108.921 49.68C108.367 48.7627 107.631 48.048 106.713 47.536C105.817 47.0027 104.825 46.736 103.737 46.736C102.649 46.736 101.657 47.0027 100.761 47.536C99.8655 48.048 99.1295 48.7733 98.5535 49.712C97.9988 50.6293 97.6788 51.6853 97.5935 52.88ZM115.575 57.2C115.575 56.1547 115.873 55.2587 116.471 54.512C117.068 53.744 117.889 53.1573 118.935 52.752C120.001 52.3253 121.228 52.112 122.615 52.112C123.425 52.112 124.268 52.176 125.143 52.304C126.017 52.432 126.796 52.624 127.479 52.88V51.472C127.479 50.064 127.063 48.944 126.231 48.112C125.399 47.28 124.247 46.864 122.775 46.864C121.879 46.864 120.993 47.0347 120.119 47.376C119.265 47.696 118.369 48.176 117.431 48.816L116.599 47.28C117.687 46.5333 118.753 45.9787 119.799 45.616C120.844 45.232 121.911 45.04 122.999 45.04C125.047 45.04 126.668 45.6267 127.863 46.8C129.057 47.9733 129.655 49.5947 129.655 51.664V59.376C129.655 59.6747 129.719 59.8987 129.847 60.048C129.975 60.176 130.177 60.2507 130.455 60.272V62C130.22 62.0213 130.017 62.0427 129.847 62.064C129.676 62.0853 129.548 62.0853 129.463 62.064C128.929 62.0427 128.524 61.872 128.247 61.552C127.969 61.232 127.82 60.8907 127.799 60.528L127.767 59.312C127.02 60.272 126.049 61.0187 124.855 61.552C123.66 62.064 122.444 62.32 121.207 62.32C120.14 62.32 119.169 62.096 118.295 61.648C117.441 61.1787 116.769 60.56 116.279 59.792C115.809 59.0027 115.575 58.1387 115.575 57.2ZM126.743 58.48C126.977 58.1813 127.159 57.8933 127.287 57.616C127.415 57.3387 127.479 57.0933 127.479 56.88V54.448C126.753 54.1707 125.996 53.9573 125.207 53.808C124.439 53.6587 123.66 53.584 122.871 53.584C121.313 53.584 120.055 53.8933 119.095 54.512C118.135 55.1307 117.655 55.9733 117.655 57.04C117.655 57.6587 117.815 58.2453 118.135 58.8C118.455 59.3333 118.924 59.7813 119.543 60.144C120.161 60.4853 120.887 60.656 121.719 60.656C122.764 60.656 123.735 60.4533 124.631 60.048C125.548 59.6427 126.252 59.12 126.743 58.48ZM136.052 38.64H138.228V58.224C138.228 59.056 138.378 59.6 138.676 59.856C138.975 60.112 139.338 60.24 139.764 60.24C140.148 60.24 140.532 60.1973 140.916 60.112C141.3 60.0267 141.631 59.9413 141.908 59.856L142.292 61.616C141.887 61.7867 141.386 61.9253 140.788 62.032C140.212 62.1387 139.711 62.192 139.284 62.192C138.303 62.192 137.514 61.904 136.916 61.328C136.34 60.752 136.052 59.9627 136.052 58.96V38.64Z" fill="black"/>
</svg>
